<svg width="476" height="552" viewBox="0 0 476 552" fill="none" xmlns="http://www.w3.org/2000/svg">
<g opacity="0.8">
<path d="M401.468 432.251C400.967 432.046 400.483 432.486 400.708 432.942C400.758 433.041 400.842 433.116 400.95 433.162C401.451 433.367 401.935 432.927 401.71 432.471C401.66 432.373 401.576 432.297 401.468 432.251Z" fill="white" fill-opacity="0.32"/>
<path d="M353.661 510.899C353.161 510.694 352.676 511.133 352.902 511.588C352.952 511.686 353.035 511.762 353.144 511.807C353.645 512.019 354.129 511.573 353.904 511.118C353.853 511.02 353.77 510.944 353.661 510.899Z" fill="white" fill-opacity="0.32"/>
<path d="M421.71 123.442C421.209 123.237 420.725 123.677 420.95 124.132C421 124.231 421.084 124.307 421.192 124.353C421.693 124.558 422.178 124.117 421.952 123.662C421.902 123.563 421.819 123.487 421.71 123.442Z" fill="white" fill-opacity="0.8"/>
<path d="M450.294 33.2001C449.793 32.9881 449.309 33.4348 449.534 33.889C449.584 33.9874 449.668 34.0631 449.776 34.1085C450.277 34.3129 450.762 33.8739 450.536 33.4196C450.486 33.3212 450.403 33.2455 450.294 33.2001Z" fill="white" fill-opacity="0.32"/>
<path d="M226.489 543.356C225.988 543.151 225.503 543.591 225.729 544.045C225.779 544.143 225.862 544.219 225.971 544.264C226.472 544.476 226.956 544.03 226.731 543.575C226.681 543.477 226.597 543.401 226.489 543.356Z" fill="white" fill-opacity="0.32"/>
<path d="M392.706 286.742C392.205 286.537 391.721 286.977 391.946 287.432C391.996 287.531 392.08 287.607 392.188 287.653C392.689 287.858 393.173 287.417 392.948 286.962C392.898 286.863 392.814 286.787 392.706 286.742Z" fill="white" fill-opacity="0.32"/>
<path d="M349.246 424.303C348.745 424.091 348.261 424.538 348.486 424.992C348.536 425.091 348.62 425.166 348.728 425.212C349.229 425.416 349.713 424.977 349.488 424.523C349.438 424.424 349.354 424.349 349.246 424.303Z" fill="white" fill-opacity="0.32"/>
<path d="M10.0719 71.7157C9.57096 71.5037 9.08675 71.9504 9.31216 72.4046C9.36225 72.503 9.44573 72.5787 9.55426 72.6242C10.0552 72.8286 10.5394 72.3895 10.314 71.9353C10.2639 71.8368 10.1804 71.7611 10.0719 71.7157Z" fill="white" fill-opacity="0.8"/>
<path d="M452.945 541.327C452.444 541.123 451.96 541.562 452.186 542.016C452.236 542.115 452.319 542.19 452.428 542.236C452.929 542.448 453.413 542.001 453.188 541.547C453.137 541.449 453.054 541.373 452.945 541.327Z" fill="white" fill-opacity="0.8"/>
<path d="M20.1117 550.456C19.6108 550.252 19.1265 550.691 19.352 551.145C19.402 551.243 19.4855 551.319 19.5941 551.364C20.095 551.576 20.5792 551.13 20.3538 550.675C20.3037 550.577 20.2202 550.501 20.1117 550.456Z" fill="white" fill-opacity="0.8"/>
<path d="M380.435 358.756C379.934 358.552 379.45 358.991 379.676 359.445C379.726 359.543 379.809 359.619 379.918 359.664C380.419 359.876 380.903 359.43 380.678 358.975C380.627 358.877 380.544 358.801 380.435 358.756Z" fill="white" fill-opacity="0.32"/>
<path d="M466.33 217.77C465.83 217.566 465.347 218.005 465.572 218.459C465.622 218.557 465.705 218.633 465.814 218.679C466.313 218.891 466.805 218.444 466.571 217.99C466.521 217.891 466.438 217.816 466.33 217.77Z" fill="white" fill-opacity="0.32"/>
<path d="M431.75 286.742C431.249 286.537 430.764 286.977 430.99 287.432C431.04 287.531 431.123 287.607 431.232 287.653C431.733 287.857 432.217 287.417 431.992 286.962C431.942 286.863 431.858 286.787 431.75 286.742Z" fill="white" fill-opacity="0.8"/>
<path d="M22.3429 277.616C21.842 277.404 21.3577 277.85 21.5832 278.305C21.6332 278.403 21.7167 278.479 21.8253 278.524C22.3262 278.729 22.8104 278.289 22.585 277.835C22.5349 277.737 22.4514 277.661 22.3429 277.616Z" fill="white" fill-opacity="0.32"/>
<path d="M314.007 432.141C313.506 431.936 313.022 432.376 313.247 432.832C313.297 432.93 313.381 433.006 313.489 433.052C313.99 433.257 314.474 432.817 314.249 432.361C314.199 432.263 314.115 432.187 314.007 432.141Z" fill="white" fill-opacity="0.32"/>
<path d="M36.0988 370.848C35.5992 370.644 35.1163 371.083 35.3411 371.537C35.391 371.635 35.4743 371.711 35.5825 371.757C36.0821 371.969 36.5734 371.522 36.3402 371.068C36.2903 370.969 36.207 370.893 36.0988 370.848Z" fill="white" fill-opacity="0.32"/>
<path d="M36.8451 486.92C36.3442 486.715 35.8599 487.155 36.0854 487.611C36.1354 487.709 36.2189 487.785 36.3275 487.831C36.8284 488.036 37.3126 487.596 37.0872 487.14C37.0371 487.041 36.9536 486.966 36.8451 486.92Z" fill="white" fill-opacity="0.32"/>
<path d="M76.3893 132.891C75.8883 132.686 75.4041 133.125 75.6295 133.58C75.6796 133.678 75.7631 133.754 75.8716 133.799C76.3726 134.011 76.8568 133.564 76.6314 133.11C76.5813 133.012 76.4978 132.936 76.3893 132.891Z" fill="white" fill-opacity="0.32"/>
<path d="M43.1234 91.9257C42.6225 91.7137 42.1383 92.1603 42.3637 92.6146C42.4138 92.713 42.4973 92.7887 42.6058 92.8341C43.1067 93.0385 43.5909 92.5994 43.3655 92.1452C43.3154 92.0468 43.2319 91.9711 43.1234 91.9257Z" fill="white" fill-opacity="0.32"/>
<path d="M96.9676 506.201C96.4667 505.996 95.9825 506.436 96.2079 506.892C96.258 506.99 96.3415 507.066 96.45 507.112C96.9509 507.317 97.4352 506.876 97.2097 506.421C97.1596 506.322 97.0762 506.246 96.9676 506.201Z" fill="white" fill-opacity="0.32"/>
<path d="M350.841 36.4138C350.34 36.2019 349.856 36.6485 350.081 37.1027C350.131 37.2012 350.215 37.2769 350.323 37.3223C350.824 37.5267 351.308 37.0876 351.083 36.6334C351.033 36.535 350.949 36.4592 350.841 36.4138Z" fill="white" fill-opacity="0.32"/>
<path d="M417.248 254.181C416.747 254.386 416.263 253.946 416.488 253.49C416.538 253.392 416.622 253.316 416.73 253.27C417.231 253.065 417.715 253.506 417.49 253.961C417.44 254.06 417.356 254.136 417.248 254.181Z" fill="white" fill-opacity="0.32"/>
<path d="M419.479 349.524C418.978 349.729 418.494 349.289 418.719 348.833C418.769 348.735 418.853 348.659 418.961 348.613C419.462 348.408 419.947 348.848 419.721 349.304C419.671 349.403 419.588 349.479 419.479 349.524Z" fill="white" fill-opacity="0.32"/>
<path d="M435.095 218.681C434.595 218.886 434.112 218.447 434.337 217.992C434.387 217.894 434.47 217.818 434.578 217.773C435.078 217.561 435.569 218.008 435.336 218.462C435.286 218.56 435.203 218.636 435.095 218.681Z" fill="white" fill-opacity="0.32"/>
<path d="M35.9159 11.4756C35.415 11.6876 34.9307 11.2409 35.1562 10.7867C35.2062 10.6883 35.2897 10.6125 35.3983 10.5671C35.8992 10.3627 36.3834 10.8018 36.158 11.256C36.1079 11.3545 36.0244 11.4302 35.9159 11.4756Z" fill="white" fill-opacity="0.8"/>
<path d="M1.14732 171.01C0.646409 171.214 0.162187 170.775 0.387599 170.321C0.437691 170.223 0.521171 170.147 0.629703 170.101C1.13062 169.889 1.61484 170.336 1.38943 170.79C1.33934 170.889 1.25586 170.964 1.14732 171.01Z" fill="white" fill-opacity="0.32"/>
<path d="M12.8355 194.984C12.3346 195.189 11.8504 194.749 12.0758 194.293C12.1259 194.195 12.2094 194.119 12.3179 194.073C12.8189 193.868 13.3031 194.309 13.0777 194.764C13.0276 194.863 12.9441 194.939 12.8355 194.984Z" fill="white" fill-opacity="0.32"/>
<path d="M21.7071 121.483C21.2062 121.688 20.722 121.248 20.9474 120.792C20.9975 120.694 21.081 120.618 21.1895 120.572C21.6904 120.367 22.1747 120.808 21.9492 121.263C21.8992 121.362 21.8157 121.438 21.7071 121.483Z" fill="white" fill-opacity="0.32"/>
<path d="M13.4186 430.667C12.9176 430.872 12.4334 430.432 12.6588 429.976C12.7089 429.877 12.7924 429.802 12.9009 429.756C13.4019 429.551 13.8861 429.991 13.6607 430.447C13.6106 430.545 13.5271 430.621 13.4186 430.667Z" fill="white" fill-opacity="0.32"/>
<path d="M78.1178 484.071C77.6169 484.275 77.1326 483.836 77.3581 483.382C77.4081 483.283 77.4916 483.208 77.6002 483.162C78.1011 482.95 78.5853 483.397 78.3599 483.851C78.3098 483.949 78.2263 484.025 78.1178 484.071Z" fill="white" fill-opacity="0.32"/>
<path d="M78.4342 388.394C77.9333 388.599 77.4491 388.158 77.6745 387.703C77.7246 387.604 77.808 387.528 77.9166 387.483C78.4175 387.278 78.9017 387.718 78.6763 388.174C78.6262 388.272 78.5427 388.348 78.4342 388.394Z" fill="white" fill-opacity="0.32"/>
<path d="M431.75 381.981C431.249 382.186 430.764 381.746 430.99 381.29C431.04 381.192 431.123 381.116 431.232 381.07C431.733 380.865 432.217 381.306 431.992 381.761C431.942 381.86 431.858 381.936 431.75 381.981Z" fill="white" fill-opacity="0.32"/>
<path d="M464.101 313.01C463.6 313.215 463.116 312.774 463.341 312.319C463.392 312.22 463.475 312.144 463.584 312.099C464.084 311.894 464.569 312.334 464.343 312.79C464.293 312.888 464.21 312.964 464.101 313.01Z" fill="white" fill-opacity="0.8"/>
<path d="M387.977 189.691C387.476 189.896 386.992 189.456 387.217 189.001C387.267 188.902 387.351 188.826 387.459 188.78C387.96 188.576 388.444 189.016 388.219 189.471C388.169 189.57 388.085 189.646 387.977 189.691Z" fill="white" fill-opacity="0.8"/>
<path d="M437.328 434.724C436.827 434.929 436.343 434.489 436.568 434.033C436.618 433.935 436.702 433.859 436.81 433.813C437.311 433.608 437.796 434.048 437.57 434.504C437.52 434.603 437.437 434.679 437.328 434.724Z" fill="white" fill-opacity="0.8"/>
<path d="M476.372 393.138C475.871 393.343 475.387 392.904 475.612 392.45C475.663 392.351 475.746 392.275 475.855 392.23C476.355 392.018 476.84 392.465 476.614 392.919C476.564 393.017 476.481 393.093 476.372 393.138Z" fill="white" fill-opacity="0.32"/>
<path d="M394.918 74.309C394.417 74.5134 393.933 74.0743 394.158 73.6201C394.208 73.5217 394.292 73.446 394.4 73.4006C394.901 73.1886 395.386 73.6353 395.16 74.0895C395.11 74.1879 395.027 74.2636 394.918 74.309Z" fill="white" fill-opacity="0.32"/>
<path d="M380.7 109.246C380.199 109.458 379.714 109.012 379.94 108.557C379.99 108.459 380.073 108.383 380.182 108.338C380.683 108.133 381.167 108.572 380.942 109.027C380.892 109.125 380.808 109.201 380.7 109.246Z" fill="white" fill-opacity="0.32"/>
<path d="M65.3004 0.976258C64.7995 1.18121 64.3153 0.740942 64.5407 0.285498C64.5908 0.186819 64.6743 0.110917 64.7828 0.0653723C65.2837 -0.139577 65.7679 0.300676 65.5425 0.75612C65.4924 0.8548 65.4089 0.930714 65.3004 0.976258Z" fill="white" fill-opacity="0.8"/>
<path d="M80.3514 54.367C79.8505 54.5714 79.3663 54.1323 79.5917 53.6781C79.6418 53.5797 79.7253 53.504 79.8338 53.4586C80.3347 53.2466 80.8189 53.6932 80.5935 54.1475C80.5434 54.2459 80.46 54.3216 80.3514 54.367Z" fill="white" fill-opacity="0.32"/>
<path d="M431.75 173.038C431.249 173.243 430.764 172.803 430.99 172.348C431.04 172.249 431.123 172.173 431.232 172.127C431.733 171.922 432.217 172.363 431.992 172.818C431.942 172.917 431.858 172.993 431.75 173.038Z" fill="white" fill-opacity="0.32"/>
<path d="M116.049 77.6504C115.548 77.4384 115.064 77.8851 115.289 78.3393C115.34 78.4377 115.423 78.5134 115.532 78.5589C116.032 78.7633 116.517 78.3242 116.291 77.87C116.241 77.7715 116.158 77.6958 116.049 77.6504Z" fill="white" fill-opacity="0.8"/>
<path d="M152.827 0.174314C152.327 0.386287 151.842 -0.0603728 152.068 -0.5146C152.118 -0.613016 152.201 -0.688721 152.31 -0.734144C152.811 -0.938546 153.295 -0.499457 153.07 -0.0452297C153.02 0.0531862 152.936 0.128891 152.827 0.174314Z" fill="white" fill-opacity="0.8"/>
<path d="M177.385 7.04553C176.884 7.2575 176.4 6.81084 176.625 6.35661C176.675 6.25819 176.759 6.18249 176.867 6.13707C177.368 5.93267 177.852 6.37176 177.627 6.82599C177.577 6.92441 177.493 7.00011 177.385 7.04553Z" fill="white" fill-opacity="0.8"/>
<path d="M166.295 73.3174C165.794 73.5223 165.31 73.0821 165.536 72.6266C165.586 72.5279 165.669 72.452 165.778 72.4065C166.279 72.2015 166.763 72.6418 166.537 73.0973C166.487 73.1959 166.404 73.2718 166.295 73.3174Z" fill="white" fill-opacity="0.32"/>
<path d="M219.994 88.85C219.493 89.062 219.009 88.6153 219.234 88.1611C219.284 88.0627 219.368 87.987 219.476 87.9416C219.977 87.7372 220.461 88.1763 220.236 88.6305C220.186 88.7289 220.102 88.8046 219.994 88.85Z" fill="white" fill-opacity="0.8"/>
<path d="M325.786 2.45453C325.285 2.6665 324.801 2.21984 325.026 1.76561C325.076 1.66719 325.16 1.59149 325.268 1.54607C325.769 1.34167 326.253 1.78075 326.028 2.23498C325.978 2.33339 325.894 2.4091 325.786 2.45453Z" fill="white" fill-opacity="0.32"/>
<path d="M157.325 156.593C156.824 156.388 156.339 156.828 156.565 157.283C156.615 157.382 156.698 157.458 156.807 157.504C157.308 157.709 157.792 157.268 157.567 156.813C157.517 156.714 157.433 156.638 157.325 156.593Z" fill="white" fill-opacity="0.8"/>
<path d="M304.43 176.749C303.929 176.537 303.445 176.983 303.67 177.438C303.72 177.536 303.804 177.612 303.912 177.657C304.413 177.862 304.897 177.423 304.672 176.968C304.622 176.87 304.538 176.794 304.43 176.749Z" fill="white" fill-opacity="0.32"/>
<path d="M167.621 220.707C167.121 220.503 166.636 220.942 166.862 221.396C166.912 221.494 166.995 221.57 167.104 221.615C167.605 221.827 168.089 221.381 167.864 220.927C167.813 220.828 167.73 220.752 167.621 220.707Z" fill="white" fill-opacity="0.32"/>
<path d="M200.831 144.421C200.33 144.216 199.846 144.657 200.071 145.112C200.122 145.211 200.205 145.287 200.314 145.332C200.814 145.537 201.299 145.097 201.073 144.641C201.023 144.543 200.94 144.467 200.831 144.421Z" fill="white" fill-opacity="0.32"/>
<path d="M352.296 397.301C351.795 397.089 351.31 397.536 351.536 397.99C351.586 398.089 351.669 398.164 351.778 398.21C352.279 398.414 352.763 397.975 352.538 397.521C352.488 397.423 352.404 397.347 352.296 397.301Z" fill="white" fill-opacity="0.32"/>
<path d="M105.759 421.249C105.258 421.461 104.774 421.014 104.999 420.56C105.049 420.461 105.133 420.386 105.241 420.34C105.742 420.136 106.226 420.575 106.001 421.029C105.951 421.128 105.867 421.203 105.759 421.249Z" fill="white" fill-opacity="0.32"/>
<path d="M259.156 315.093C258.655 314.881 258.17 315.327 258.396 315.781C258.446 315.88 258.529 315.956 258.638 316.001C259.139 316.205 259.623 315.766 259.398 315.312C259.348 315.214 259.264 315.138 259.156 315.093Z" fill="white" fill-opacity="0.32"/>
<path d="M210.111 221.778C210.612 221.566 211.097 222.013 210.871 222.467C210.821 222.566 210.738 222.641 210.629 222.687C210.128 222.891 209.644 222.452 209.869 221.998C209.919 221.899 210.003 221.824 210.111 221.778Z" fill="white" fill-opacity="0.32"/>
<path d="M346.968 225.567C346.467 225.355 345.982 225.801 346.208 226.256C346.258 226.354 346.341 226.43 346.45 226.475C346.951 226.68 347.435 226.24 347.21 225.786C347.16 225.688 347.076 225.612 346.968 225.567Z" fill="white" fill-opacity="0.32"/>
<path d="M365.932 65.3069C365.431 65.1025 364.947 65.5416 365.173 65.9958C365.223 66.0943 365.306 66.17 365.415 66.2154C365.916 66.4274 366.4 65.9807 366.174 65.5265C366.124 65.4281 366.041 65.3524 365.932 65.3069Z" fill="white" fill-opacity="0.32"/>
<path d="M159.556 444.652C159.055 444.44 158.571 444.887 158.796 445.341C158.846 445.44 158.93 445.515 159.038 445.561C159.539 445.765 160.023 445.326 159.798 444.872C159.748 444.774 159.664 444.698 159.556 444.652Z" fill="white" fill-opacity="0.8"/>
<path d="M152.063 362.444C151.562 362.232 151.077 362.678 151.303 363.132C151.353 363.231 151.436 363.307 151.545 363.352C152.046 363.556 152.53 363.117 152.305 362.663C152.255 362.565 152.171 362.489 152.063 362.444Z" fill="white" fill-opacity="0.8"/>
<path d="M168.796 412.736C168.295 412.524 167.811 412.971 168.036 413.425C168.086 413.523 168.17 413.599 168.278 413.644C168.779 413.849 169.264 413.41 169.038 412.955C168.988 412.857 168.905 412.781 168.796 412.736Z" fill="white" fill-opacity="0.8"/>
<path d="M317.204 269.129C317.705 268.917 318.19 269.364 317.964 269.818C317.914 269.917 317.831 269.992 317.722 270.038C317.221 270.242 316.737 269.803 316.962 269.349C317.012 269.25 317.096 269.175 317.204 269.129Z" fill="white" fill-opacity="0.8"/>
<path d="M309.067 449.737C308.566 449.533 308.081 449.972 308.307 450.426C308.357 450.524 308.44 450.6 308.549 450.645C309.05 450.857 309.534 450.411 309.309 449.957C309.259 449.858 309.175 449.782 309.067 449.737Z" fill="white" fill-opacity="0.32"/>
<path d="M177.889 265.097C177.39 264.893 176.907 265.332 177.132 265.786C177.182 265.885 177.265 265.96 177.373 266.006C177.873 266.218 178.364 265.771 178.131 265.317C178.081 265.219 177.998 265.143 177.889 265.097Z" fill="white" fill-opacity="0.32"/>
<path d="M380.979 335.007C380.478 334.802 379.994 335.242 380.219 335.696C380.269 335.794 380.353 335.87 380.461 335.915C380.962 336.127 381.446 335.681 381.221 335.226C381.171 335.128 381.087 335.052 380.979 335.007Z" fill="white" fill-opacity="0.32"/>
<path d="M236.887 139.57C236.654 140.025 237.145 140.466 237.645 140.261C237.753 140.215 237.837 140.139 237.886 140.041C238.111 139.585 237.628 139.145 237.129 139.35C237.021 139.395 236.937 139.471 236.887 139.57Z" fill="white" fill-opacity="0.32"/>
<path d="M225.873 505.827C225.372 505.623 224.888 506.062 225.113 506.516C225.164 506.615 225.247 506.69 225.356 506.736C225.856 506.948 226.341 506.501 226.115 506.047C226.065 505.948 225.982 505.873 225.873 505.827Z" fill="white" fill-opacity="0.32"/>
<path d="M192.607 464.862C192.106 464.65 191.622 465.097 191.847 465.551C191.897 465.65 191.981 465.725 192.089 465.771C192.59 465.975 193.075 465.536 192.849 465.082C192.799 464.984 192.716 464.908 192.607 464.862Z" fill="white" fill-opacity="0.32"/>
<path d="M376.543 178.837C376.042 178.632 375.558 179.072 375.783 179.527C375.833 179.626 375.917 179.702 376.025 179.748C376.526 179.953 377.01 179.512 376.785 179.057C376.735 178.958 376.651 178.882 376.543 178.837Z" fill="white" fill-opacity="0.32"/>
<path d="M185.4 384.412C184.899 384.624 184.414 384.178 184.64 383.723C184.69 383.625 184.773 383.549 184.882 383.504C185.383 383.299 185.867 383.739 185.642 384.193C185.592 384.291 185.508 384.367 185.4 384.412Z" fill="white" fill-opacity="0.8"/>
<path d="M202.133 434.705C201.632 434.917 201.148 434.47 201.373 434.016C201.423 433.917 201.507 433.842 201.615 433.796C202.116 433.592 202.6 434.031 202.375 434.485C202.325 434.584 202.241 434.659 202.133 434.705Z" fill="white" fill-opacity="0.8"/>
<path d="M177.907 302.203C177.406 302.415 176.921 301.969 177.147 301.515C177.197 301.416 177.28 301.34 177.389 301.295C177.89 301.091 178.374 301.53 178.149 301.984C178.099 302.082 178.015 302.158 177.907 302.203Z" fill="white" fill-opacity="0.8"/>
<path d="M291.36 208.889C291.861 209.101 292.346 208.654 292.12 208.2C292.07 208.102 291.987 208.026 291.878 207.981C291.377 207.776 290.893 208.215 291.118 208.67C291.168 208.768 291.252 208.844 291.36 208.889Z" fill="white" fill-opacity="0.8"/>
<path d="M291.191 138.232C290.69 138.437 290.206 137.998 290.431 137.543C290.481 137.445 290.565 137.369 290.673 137.324C291.174 137.112 291.658 137.559 291.433 138.013C291.383 138.111 291.299 138.187 291.191 138.232Z" fill="white" fill-opacity="0.32"/>
<path d="M259.589 162.134C259.088 162.346 258.604 161.899 258.829 161.445C258.879 161.347 258.963 161.271 259.071 161.226C259.572 161.021 260.056 161.46 259.831 161.915C259.781 162.013 259.697 162.089 259.589 162.134Z" fill="white" fill-opacity="0.8"/>
<path d="M340.226 118.019C339.725 118.223 339.241 117.784 339.466 117.33C339.516 117.232 339.6 117.156 339.708 117.11C340.209 116.898 340.693 117.345 340.468 117.799C340.418 117.898 340.334 117.973 340.226 118.019Z" fill="white" fill-opacity="0.32"/>
<path d="M301.732 72.2829C301.957 72.7384 301.473 73.1786 300.972 72.9737C300.864 72.9281 300.78 72.8522 300.73 72.7536C300.505 72.2981 300.989 71.8579 301.49 72.0628C301.598 72.1084 301.682 72.1843 301.732 72.2829Z" fill="white" fill-opacity="0.8"/>
<path d="M265.772 96.97C266.005 97.4255 265.514 97.8657 265.014 97.6608C264.906 97.6152 264.823 97.5393 264.773 97.4406C264.548 96.9852 265.031 96.5449 265.531 96.7499C265.639 96.7954 265.722 96.8713 265.772 96.97Z" fill="white" fill-opacity="0.32"/>
<path d="M171.191 494.42C170.69 494.625 170.206 494.184 170.431 493.729C170.481 493.63 170.565 493.554 170.673 493.509C171.174 493.304 171.659 493.744 171.433 494.2C171.383 494.298 171.3 494.374 171.191 494.42Z" fill="white" fill-opacity="0.32"/>
<path d="M300.431 373.913C299.93 374.118 299.445 373.678 299.671 373.222C299.721 373.124 299.804 373.048 299.913 373.002C300.414 372.797 300.898 373.237 300.673 373.693C300.623 373.792 300.539 373.867 300.431 373.913Z" fill="white" fill-opacity="0.8"/>
<path d="M329.12 304.573C328.62 304.785 328.129 304.338 328.362 303.884C328.412 303.785 328.495 303.71 328.604 303.664C329.103 303.46 329.586 303.899 329.361 304.353C329.311 304.451 329.228 304.527 329.12 304.573Z" fill="white" fill-opacity="0.32"/>
<path d="M53.8941 444.637C53.3932 444.432 52.909 444.873 53.1344 445.328C53.1845 445.427 53.268 445.503 53.3765 445.548C53.8774 445.753 54.3617 445.313 54.1363 444.857C54.0862 444.759 54.0027 444.683 53.8941 444.637Z" fill="white" fill-opacity="0.8"/>
<path d="M207.291 291.704C206.79 291.909 206.306 291.469 206.531 291.013C206.581 290.915 206.665 290.839 206.774 290.793C207.274 290.588 207.759 291.028 207.533 291.484C207.483 291.583 207.4 291.659 207.291 291.704Z" fill="white" fill-opacity="0.8"/>
<path d="M261.976 198.39C262.477 198.595 262.961 198.155 262.736 197.699C262.686 197.6 262.602 197.524 262.494 197.479C261.993 197.274 261.509 197.714 261.734 198.17C261.784 198.268 261.868 198.344 261.976 198.39Z" fill="white" fill-opacity="0.8"/>
<path d="M229.835 427.304C229.334 427.508 228.85 427.069 229.076 426.615C229.126 426.516 229.209 426.441 229.318 426.395C229.819 426.183 230.303 426.63 230.077 427.084C230.027 427.183 229.944 427.258 229.835 427.304Z" fill="white" fill-opacity="0.32"/>
<path d="M339.866 368.051C339.365 368.263 338.881 367.816 339.106 367.362C339.156 367.263 339.24 367.188 339.348 367.142C339.849 366.938 340.333 367.377 340.108 367.831C340.058 367.929 339.974 368.005 339.866 368.051Z" fill="white" fill-opacity="0.32"/>
<path d="M222.342 345.095C221.841 345.299 221.357 344.86 221.583 344.406C221.633 344.308 221.716 344.232 221.825 344.186C222.326 343.974 222.81 344.421 222.584 344.875C222.534 344.974 222.451 345.049 222.342 345.095Z" fill="white" fill-opacity="0.32"/>
<path d="M239.076 395.387C238.575 395.592 238.091 395.153 238.316 394.698C238.366 394.6 238.45 394.524 238.558 394.479C239.059 394.267 239.543 394.713 239.318 395.168C239.268 395.266 239.184 395.342 239.076 395.387Z" fill="white" fill-opacity="0.32"/>
<path d="M246.925 251.781C247.426 251.985 247.91 251.546 247.684 251.092C247.634 250.993 247.551 250.918 247.442 250.872C246.941 250.66 246.457 251.107 246.683 251.561C246.733 251.659 246.816 251.735 246.925 251.781Z" fill="white" fill-opacity="0.32"/>
<path d="M93.3297 450.5C92.8288 450.288 92.3446 450.734 92.57 451.189C92.6201 451.287 92.7036 451.363 92.8121 451.408C93.313 451.613 93.7972 451.173 93.5718 450.719C93.5217 450.621 93.4382 450.545 93.3297 450.5Z" fill="white" fill-opacity="0.32"/>
<path d="M246.727 285.842C246.226 286.054 245.742 285.607 245.967 285.153C246.017 285.054 246.101 284.979 246.209 284.933C246.71 284.729 247.194 285.168 246.969 285.622C246.919 285.72 246.835 285.796 246.727 285.842Z" fill="white" fill-opacity="0.32"/>
<path d="M222.541 192.527C223.042 192.739 223.526 192.293 223.301 191.838C223.251 191.74 223.167 191.664 223.059 191.619C222.558 191.415 222.073 191.854 222.299 192.308C222.349 192.406 222.432 192.482 222.541 192.527Z" fill="white" fill-opacity="0.32"/>
<path d="M249.913 480.367C249.414 480.571 248.931 480.132 249.156 479.678C249.205 479.58 249.289 479.504 249.397 479.459C249.897 479.247 250.388 479.693 250.155 480.148C250.105 480.246 250.021 480.322 249.913 480.367Z" fill="white" fill-opacity="0.32"/>
<path d="M368.746 289.606C368.245 289.811 367.761 289.371 367.986 288.915C368.036 288.816 368.12 288.741 368.228 288.695C368.729 288.49 369.213 288.93 368.988 289.386C368.938 289.484 368.854 289.56 368.746 289.606Z" fill="white" fill-opacity="0.32"/>
<path d="M235.652 33.07C235.885 33.5254 235.394 33.9657 234.895 33.7607C234.786 33.7152 234.703 33.6393 234.653 33.5406C234.428 33.0852 234.911 32.6449 235.411 32.8499C235.519 32.8954 235.602 32.9713 235.652 33.07Z" fill="white" fill-opacity="0.32"/>
<path d="M436.212 504.707C435.711 504.919 435.227 504.473 435.452 504.018C435.502 503.92 435.586 503.844 435.694 503.799C436.195 503.594 436.68 504.033 436.454 504.488C436.404 504.586 436.321 504.662 436.212 504.707Z" fill="white" fill-opacity="0.32"/>
<path d="M394.937 508.764C394.436 508.976 393.952 508.53 394.177 508.075C394.227 507.977 394.311 507.901 394.419 507.856C394.92 507.651 395.404 508.091 395.179 508.545C395.129 508.643 395.045 508.719 394.937 508.764Z" fill="white" fill-opacity="0.32"/>
<path d="M303.538 509.906C303.037 510.118 302.553 509.671 302.778 509.217C302.828 509.119 302.912 509.043 303.02 508.997C303.521 508.793 304.005 509.232 303.78 509.686C303.73 509.785 303.646 509.861 303.538 509.906Z" fill="white" fill-opacity="0.32"/>
<path d="M48.0006 210.67C47.4997 210.466 47.0155 210.905 47.2409 211.359C47.291 211.457 47.3744 211.533 47.483 211.579C47.9839 211.791 48.4681 211.344 48.2427 210.89C48.1926 210.791 48.1091 210.716 48.0006 210.67Z" fill="white" fill-opacity="0.32"/>
<path d="M147.285 241.099C146.784 240.894 146.299 241.333 146.525 241.788C146.575 241.886 146.658 241.962 146.767 242.007C147.268 242.219 147.752 241.773 147.527 241.318C147.477 241.22 147.393 241.144 147.285 241.099Z" fill="white" fill-opacity="0.8"/>
<path d="M279.596 12.4516C279.095 12.2472 278.61 12.6863 278.836 13.1405C278.886 13.2389 278.969 13.3146 279.078 13.36C279.579 13.572 280.063 13.1254 279.838 12.6711C279.788 12.5727 279.704 12.497 279.596 12.4516Z" fill="white" fill-opacity="0.8"/>
<path d="M94.8272 337.353C94.3263 337.557 93.8421 337.118 94.0675 336.664C94.1176 336.565 94.2011 336.49 94.3096 336.444C94.8106 336.232 95.2948 336.679 95.0694 337.133C95.0193 337.232 94.9358 337.307 94.8272 337.353Z" fill="white" fill-opacity="0.32"/>
<path d="M227.139 108.706C226.638 108.91 226.153 108.471 226.379 108.017C226.429 107.918 226.512 107.843 226.621 107.797C227.122 107.585 227.606 108.032 227.381 108.486C227.331 108.584 227.247 108.66 227.139 108.706Z" fill="white" fill-opacity="0.32"/>
<path d="M99.0892 254.663C98.5883 254.868 98.1041 254.428 98.3295 253.972C98.3796 253.874 98.4631 253.798 98.5716 253.752C99.0725 253.547 99.5567 253.987 99.3313 254.443C99.2812 254.542 99.1977 254.618 99.0892 254.663Z" fill="white" fill-opacity="0.32"/>
<path d="M231.4 26.0159C230.899 26.2209 230.415 25.7806 230.641 25.3252C230.691 25.2265 230.774 25.1506 230.883 25.105C231.384 24.9001 231.868 25.3404 231.642 25.7958C231.592 25.8945 231.509 25.9704 231.4 26.0159Z" fill="white" fill-opacity="0.32"/>
<path d="M130.551 204.479C130.05 204.691 129.566 204.244 129.792 203.79C129.842 203.691 129.925 203.616 130.034 203.57C130.535 203.366 131.019 203.805 130.793 204.259C130.743 204.358 130.66 204.433 130.551 204.479Z" fill="white" fill-opacity="0.32"/>
<path d="M124.973 302.864C124.473 303.076 123.988 302.63 124.214 302.175C124.264 302.077 124.347 302.001 124.456 301.956C124.957 301.751 125.441 302.191 125.216 302.645C125.166 302.743 125.082 302.819 124.973 302.864Z" fill="white" fill-opacity="0.8"/>
<path d="M257.285 74.2172C256.784 74.4292 256.299 73.9825 256.525 73.5283C256.575 73.4298 256.658 73.3542 256.767 73.3087C257.268 73.1043 257.752 73.5434 257.527 73.9977C257.477 74.0961 257.393 74.1718 257.285 74.2172Z" fill="white" fill-opacity="0.8"/>
<path d="M89.276 208.536C88.7751 208.748 88.2908 208.301 88.5163 207.847C88.5664 207.748 88.6498 207.673 88.7584 207.627C89.2593 207.423 89.7435 207.862 89.5181 208.316C89.468 208.415 89.3845 208.49 89.276 208.536Z" fill="white" fill-opacity="0.32"/>
<path d="M65.1734 277.983C64.6725 278.188 64.1883 277.747 64.4137 277.292C64.4638 277.193 64.5473 277.117 64.6558 277.072C65.1567 276.867 65.641 277.307 65.4156 277.763C65.3655 277.861 65.282 277.937 65.1734 277.983Z" fill="white" fill-opacity="0.32"/>
<path d="M197.485 49.3356C196.984 49.5406 196.5 49.1003 196.725 48.6449C196.775 48.5462 196.859 48.4703 196.967 48.4247C197.468 48.2198 197.952 48.6601 197.727 49.1155C197.677 49.2142 197.593 49.2901 197.485 49.3356Z" fill="white" fill-opacity="0.32"/>
</g>
</svg>
